<?xml version="1.0" encoding="UTF-8" standalone="no"?>
<!-- Created with Inkscape (http://www.inkscape.org/) -->

<svg
   width="512"
   height="512"
   viewBox="0 0 135.46666 135.46667"
   version="1.1"
   id="svg1"
   xml:space="preserve"
   inkscape:export-filename="bitmap.svg"
   inkscape:export-xdpi="61.927616"
   inkscape:export-ydpi="61.927616"
   xmlns:inkscape="http://www.inkscape.org/namespaces/inkscape"
   xmlns:sodipodi="http://sodipodi.sourceforge.net/DTD/sodipodi-0.dtd"
   xmlns="http://www.w3.org/2000/svg"
   xmlns:svg="http://www.w3.org/2000/svg"><sodipodi:namedview
     id="namedview1"
     pagecolor="#ffffff"
     bordercolor="#000000"
     borderopacity="0.25"
     inkscape:showpageshadow="2"
     inkscape:pageopacity="0.0"
     inkscape:pagecheckerboard="0"
     inkscape:deskcolor="#d1d1d1"
     inkscape:document-units="mm"><inkscape:page
       x="0"
       y="0"
       width="135.46666"
       height="135.46667"
       id="page2"
       margin="0"
       bleed="0" /></sodipodi:namedview><defs
     id="defs1" /><g
     inkscape:label="Layer 1"
     inkscape:groupmode="layer"
     id="layer1"><path
       d="M 18.398341,91.003136 C 10.439929,82.405763 5.7214183,71.717156 5.7214183,60.139444 c 0,-28.366771 28.3278767,-51.3970827 63.2196297,-51.3970827 34.891772,0 63.219622,23.0303107 63.219622,51.3970827 0,28.097755 -27.79403,50.959936 -62.230742,51.390806 -2.81952,0.15968 -27.894893,1.80645 -38.988124,10.47845 C 31.415756,102.18465 18.21969,90.931682 18.21969,90.931682 l 0.179665,0.07147 z"
       style="fill:#64ffaf;stroke-width:1.05089;stroke-linejoin:round;stroke-miterlimit:2"
       id="bubble" /><path
       d="M 51.969127,74.952848 c 3.073878,0 5.751519,-1.031975 8.030942,-3.095923 2.280414,-2.063984 3.419591,-4.905589 3.419591,-8.523813 0,-3.160025 -1.14021,-5.848235 -3.419591,-8.064544 -2.280456,-2.217383 -5.033801,-3.325018 -8.261075,-3.325018 -3.227304,0 -5.942818,1.121302 -8.146539,3.363902 -2.202671,2.242603 -3.305056,4.91818 -3.305056,8.026693 0,3.66974 1.152828,6.522901 3.458487,8.561667 2.305658,2.038727 5.04639,3.058071 8.223241,3.058071 z"
       style="fill:#3f0032"
       id="eye-left" /><path
       d="M 85.870947,74.952848 c 3.07384,0 5.751525,-1.031975 8.030904,-3.095923 2.280457,-2.063984 3.419631,-4.905589 3.419631,-8.523813 0,-3.160025 -1.140207,-5.848235 -3.419631,-8.064544 -2.280413,-2.217383 -5.033761,-3.325018 -8.261075,-3.325018 -3.227269,0 -5.942763,1.121302 -8.146524,3.363902 -2.202643,2.242603 -3.305038,4.91818 -3.305038,8.026693 0,3.66974 1.152838,6.522901 3.458473,8.561667 2.305678,2.038727 5.046395,3.058071 8.22326,3.058071 z"
       style="fill:#3f0032"
       id="eye-right" /></g></svg>
